Coordinates
version=1
nRows=16
nColumns=40
inDegrees=yes

Units are S.I. units (second, meters, Newtons, ...)
Angles are in degrees.

endheader
time	pelvis_tilt	pelvis_list	pelvis_rotation	pelvis_tx	pelvis_ty	pelvis_tz	hip_flexion_r	hip_adduction_r	hip_rotation_r	knee_angle_r	knee_angle_r_beta	ankle_angle_r	subtalar_angle_r	mtp_angle_r	hip_flexion_l	hip_adduction_l	hip_rotation_l	knee_angle_l	knee_angle_l_beta	ankle_angle_l	subtalar_angle_l	mtp_angle_l	lumbar_extension	lumbar_bending	lumbar_rotation	arm_flex_r	arm_add_r	arm_rot_r	elbow_flex_r	pro_sup_r	wrist_flex_r	wrist_dev_r	arm_flex_l	arm_add_l	arm_rot_l	elbow_flex_l	pro_sup_l	wrist_flex_l	wrist_dev_l
     25.52000000	     -3.15681982	     -5.76929733	      2.68562372	      0.91464310	      0.93222504	      0.51027319	     10.89719377	      5.03389391	    -16.21589542	     13.71998667	     13.71998667	      8.25406340	     -1.07075898	     -5.08904452	     29.05492105	    -11.15302758	      1.98080877	     62.25605307	     62.25605307	     11.79371074	    -18.99619974	     16.39540461	     -8.78596658	      6.96869854	      3.39990014	     18.86804484	    -17.48903447	     -7.69155327	     55.16716274	     43.90667542	      0.00000000	      0.00000000	      8.49825080	     -6.72200149	      5.25260142	     30.07002109	     43.77478268	      0.00000000	      0.00000000
     25.53242857	     -3.29805436	     -5.55894408	      2.99422121	      0.91257352	      0.93261232	      0.51055791	     10.42265254	      4.93807295	    -16.09166663	     13.30441554	     13.30441554	      8.47531552	     -1.36764226	     -5.03588090	     30.48395381	    -10.85684206	      1.86206977	     59.73005902	     59.73005902	     12.09689267	    -19.01167113	     16.23360244	     -8.82894569	      6.64384710	      3.06310611	     20.71972760	    -17.56759208	     -7.78151804	     57.56044409	     43.88472887	      0.00000000	      0.00000000	      7.31879282	     -6.72408149	      5.22641761	     28.96834025	     43.83031703	      0.00000000	      0.00000000
     25.54485714	     -3.41502691	     -5.29126871	      3.28870300	      0.91053142	      0.93300146	      0.51075900	      9.97449007	      4.75052782	    -16.03321612	     13.00231817	     13.00231817	      8.72256633	     -1.60441836	     -4.98587904	     31.59112534	    -10.44277521	      1.67474902	     56.76745489	     56.76745489	     12.28067020	    -18.98452861	     16.23662060	     -8.92577274	      6.24970889	      2.84850485	     22.67699334	    -17.72767396	     -7.98284072	     59.41999813	     43.85433829	      0.00000000	      0.00000000	      6.17940130	     -6.74885053	      5.31787971	     28.14105835	     43.82364195	      0.00000000	      0.00000000
     25.55728571	     -3.52788378	     -5.13593740	      3.58346431	      0.90853646	      0.93321580	      0.51096742	      9.52604822	      4.69894624	    -15.93403002	     12.68272038	     12.68272038	      8.96434731	     -1.98441679	     -4.84884483	     32.45372575	    -10.07501846	      1.59350560	     53.44506529	     53.44506529	     11.99606985	    -18.91980867	     15.07198660	     -9.09754625	      6.02405228	      3.07233194	     23.57376520	    -18.32168747	     -8.22928359	     63.91191432	     43.82056827	      0.00000000	      0.00000000	      5.51902432	     -6.62427452	      5.68447633	     26.64931401	     43.89514904	      0.00000000	      0.00000000
     25.56971429	     -3.68271647	     -4.84886659	      3.84791675	      0.90660539	      0.93340124	      0.51098087	      9.15117441	      4.46209559	    -15.88510443	     12.44915380	     12.44915380	      9.25580295	     -2.15534554	     -4.84562525	     33.11525852	     -9.43568057	      1.58672037	     49.86675654	     49.86675654	     12.03413634	    -18.76385132	     15.19049639	     -9.13776443	      5.62772835	      2.82090063	     25.52654212	    -18.39123595	     -8.55699158	     65.56882230	     43.80463238	      0.00000000	      0.00000000	      4.40727339	     -6.67738037	      5.83854625	     25.90634053	     43.87659143	      0.00000000	      0.00000000
     25.58214286	     -3.87387867	     -4.66396786	      4.11188514	      0.90470234	      0.93335498	      0.51090388	      8.83850484	      4.31190046	    -15.93961420	     12.24300301	     12.24300301	      9.54495384	     -2.23373542	     -4.79135510	     33.64073469	     -8.86629731	      1.66663980	     46.05314632	     46.05314632	     11.49714311	    -18.46041879	     13.71887063	     -9.20748267	      5.39617960	      2.83461702	     26.83321789	    -18.65615530	     -9.12696293	     68.93079061	     43.80817415	      0.00000000	      0.00000000	      3.51687608	     -6.67283563	      6.37618415	     25.00074933	     43.87331881	      0.00000000	      0.00000000
     25.59457143	     -4.03647664	     -4.44937947	      4.33893549	      0.90288523	      0.93329512	      0.51070411	      8.51815587	      4.11384361	    -15.98212258	     12.09482391	     12.09482391	      9.85322378	     -2.27297076	     -4.77400316	     33.92337143	     -8.21517274	      1.82735128	     42.02935580	     42.02935580	     10.80741758	    -18.03054680	     12.00634760	     -9.29860747	      5.12048261	      2.99598699	     28.18748801	    -18.97356063	     -9.77747703	     71.54030965	     43.88269294	      0.00000000	      0.00000000	      2.65873869	     -6.72893460	      7.17460890	     24.43176913	     43.85826193	      0.00000000	      0.00000000
     25.60700000	     -4.24055025	     -4.23198816	      4.54569948	      0.90113627	      0.93311052	      0.51036786	      8.23757824	      3.90361303	    -15.99679277	     11.94259809	     11.94259809	     10.12641345	     -2.37637772	     -4.82609422	     34.20061206	     -7.53792313	      2.05512567	     38.13691471	     38.13691471	     10.88791943	    -17.04318882	     12.15204817	     -9.29273542	      4.84991344	      2.88055184	     30.00125314	    -19.07603430	     -9.99607934	     72.99604954	     43.86779661	      0.00000000	      0.00000000	      1.65729788	     -6.78272099	      7.31511068	     24.00392533	     43.83614571	      0.00000000	      0.00000000
     25.61942857	     -4.44496870	     -4.06730227	      4.73530080	      0.89948060	      0.93285563	      0.50998120	      7.94969879	      3.73848352	    -16.05588527	     11.78284500	     11.78284500	     10.37425613	     -2.34162489	     -4.88720217	     34.39862287	     -6.96901002	      2.22807873	     34.30038044	     34.30038044	     10.90982949	    -15.58894824	     12.12015292	     -9.30000641	      4.63351771	      2.74243783	     31.69231656	    -19.12141019	    -10.19153975	     74.66424652	     43.84284477	      0.00000000	      0.00000000	      0.64587179	     -6.84292523	      7.44176083	     23.67206262	     43.81264949	      0.00000000	      0.00000000
     25.63185714	     -4.60515984	     -4.02915682	      4.94848831	      0.89805431	      0.93247550	      0.50943209	      7.58487211	      3.67503299	    -16.41824704	     11.59859482	     11.59859482	     10.71213397	     -1.87001933	     -4.89119687	     34.41881912	     -6.55533770	      2.33505018	     30.41136749	     30.41136749	     10.05552712	    -14.13867953	      9.81508714	     -9.40513526	      4.60569818	      2.95468097	     32.63064246	    -19.48753186	    -10.76127087	     78.05657053	     43.87356122	      0.00000000	      0.00000000	     -0.40545231	     -6.98408885	      8.23980820	     24.15080427	     43.75750364	      0.00000000	      0.00000000
     25.64428571	     -4.77029690	     -3.97600324	      5.10915066	      0.89672834	      0.93206362	      0.50885073	      7.19725173	      3.63661381	    -16.50212487	     11.36389713	     11.36389713	     10.95813779	     -1.78528779	     -4.94665347	     34.48424241	     -6.17670037	      2.28341674	     26.97650519	     26.97650519	     10.11918871	    -12.24461373	     10.05569795	     -9.39834110	      4.54713798	      2.85040056	     34.25268150	    -19.49702109	    -10.95040968	     79.32271514	     43.86502038	      0.00000000	      0.00000000	     -1.32345024	     -7.01109651	      8.43415385	     23.81600621	     43.72772810	      0.00000000	      0.00000000
     25.65671429	     -4.94158349	     -3.96787146	      5.25703037	      0.89559831	      0.93160334	      0.50811209	      6.77848549	      3.63388194	    -16.65022140	     11.06885241	     11.06885241	     11.17599028	     -1.55044657	     -4.99533215	     34.52646403	     -5.86829327	      2.06015910	     23.86549012	     23.86549012	     10.08979410	    -10.42236230	     10.36444554	     -9.35183607	      4.54529225	      2.80083404	     35.72318084	    -19.50561216	    -11.10922744	     80.63720708	     43.84899854	      0.00000000	      0.00000000	     -2.17585366	     -6.99990675	      8.58432540	     23.64020522	     43.70055159	      0.00000000	      0.00000000
     25.66914286	     -5.04047197	     -4.02759574	      5.40573313	      0.89469856	      0.93112310	      0.50727009	      6.22271646	      3.70929912	    -16.89473430	     10.69560655	     10.69560655	     11.41671178	     -1.13897057	     -5.04021581	     34.51081087	     -5.64868463	      1.67451612	     21.20847329	     21.20847329	      9.98729409	     -8.78106649	     10.70434755	     -9.35471453	      4.64612376	      2.73284330	     37.09328288	    -19.45839206	    -11.27340145	     82.06888556	     43.82998763	      0.00000000	      0.00000000	     -3.05245372	     -6.98780884	      8.74872091	     23.55668217	     43.66965878	      0.00000000	      0.00000000
     25.68157143	     -5.10164901	     -4.12136763	      5.52144127	      0.89398852	      0.93065783	      0.50638772	      5.58954044	      3.82935331	    -17.17561591	     10.27116511	     10.27116511	     11.65450815	     -0.59297698	     -5.05870976	     34.47238717	     -5.49709236	      1.08340891	     19.06862259	     19.06862259	      9.79250933	     -7.45756556	     11.07703043	     -9.40232453	      4.77201191	      2.68469385	     38.28451400	    -19.38770433	    -11.44365409	     83.42926913	     43.81332621	      0.00000000	      0.00000000	     -3.89407509	     -6.97815396	      8.92472308	     23.55620891	     43.63644580	      0.00000000	      0.00000000
     25.69400000	     -5.15156513	     -4.29056119	      5.62896050	      0.89366607	      0.93000966	      0.50530255	      4.89628991	      3.98717474	    -17.78171706	      9.83646670	      9.83646670	     12.05819855	      0.62084474	     -4.87366095	     34.51701701	     -5.42984546	      0.39106388	     17.65773920	     17.65773920	      9.69368963	     -6.38212839	     11.25129070	     -9.37766583	      5.02663857	      2.83252223	     39.17673653	    -19.42917188	    -11.88518972	     85.29307907	     43.84571855	      0.00000000	      0.00000000	     -4.90004395	     -7.11827088	      9.66933358	     24.32558010	     43.54578676	      0.00000000	      0.00000000
     25.70642857	     -5.17135307	     -4.39341342	      5.67374389	      0.89347624	      0.92941340	      0.50424934	      4.19309084	      4.12544967	    -17.89509407	      9.43565622	      9.43565622	     12.33543979	      1.01936410	     -4.80659305	     34.39554927	     -5.31914264	     -0.29473798	     16.56013404	     16.56013404	      9.38063744	     -5.94923834	     11.52803001	     -9.32083427	      5.17560409	      2.86617988	     40.16935361	    -19.32439459	    -12.01572135	     86.06098338	     43.84950807	      0.00000000	      0.00000000	     -5.62023158	     -7.08521325	      9.92986944	     24.21878388	     43.50812394	      0.00000000	      0.00000000
